<svg width="26" height="26" viewBox="0 0 26 26" fill="none" xmlns="http://www.w3.org/2000/svg">
<path fill-rule="evenodd" clip-rule="evenodd" d="M5.42124 19.8595C-1.06684 19.1267 -2.02738 9.64838 4.15412 7.35583C5.71378 6.77742 7.71076 6.91206 9.38745 7.70918C10.8859 8.42156 10.9284 8.81375 9.64087 10.0493C8.73483 10.9187 8.572 10.9626 7.65693 10.5828C4.4958 9.27126 1.91742 12.9216 4.13807 15.5651C5.00098 16.5927 6.40084 16.9142 7.75121 16.3954C8.03774 16.2852 9.72312 14.5895 11.4958 12.6275C13.2687 10.6652 15.1901 8.71696 15.7662 8.29797C20.0574 5.17515 25.9734 8.21692 25.9998 13.5593C26.0289 19.4281 18.6184 22.2562 14.7568 17.8503C14.1835 17.1959 13.6432 16.4577 13.5566 16.2095C13.4519 15.9101 12.7254 16.3977 11.3955 17.6594C9.21861 19.7249 8.0481 20.1559 5.42124 19.8595ZM17.1771 15.5651C15.7719 13.8925 16.1968 11.7085 18.1112 10.7623C19.4225 10.1143 19.7889 10.1112 20.9989 10.7379C22.1988 11.3595 22.6638 12.1817 22.6638 13.6812C22.6638 16.4426 18.9775 17.7086 17.1771 15.5651Z" fill="#EA3323"/>
</svg>
