<svg width="26" height="27" viewBox="0 0 26 27" fill="none" xmlns="http://www.w3.org/2000/svg">
<path fill-rule="evenodd" clip-rule="evenodd" d="M25 13.6438C25 5.962 20.5218 0.00366211 12.2543 0.00366211C7.72682 0.00366211 3.98676 1.28397 2.36279 3.10593C1.62462 3.94306 2.01831 5.56806 3.49465 5.86351C5.70916 3.84457 9.44922 3.00745 12.1558 3.00745C18.4057 3.00745 21.7521 7.93169 21.7521 13.6438C21.7521 19.1097 19.4883 22.7044 14.0751 23.0984C10.3842 23.0984 9.59685 21.7196 9.64606 17.9771V8.32563C9.69528 7.09457 9.30158 6.5529 8.16972 6.5529C7.33313 6.5529 6.54575 6.79912 6.25048 6.94684C6.49654 7.73472 6.54575 8.12866 6.49654 9.26124C6.49654 9.26124 6.54575 16.4506 6.49654 18.7158C6.44733 23.9355 8.61263 26.0037 14.0259 26.0037C20.2757 26.0037 25 22.1628 25 13.6438Z" fill="#48ACB4"/>
</svg>
