<svg width="26" height="26" viewBox="0 0 26 26" fill="none" xmlns="http://www.w3.org/2000/svg">
<rect width="26" height="26" rx="4" fill="#F46400"/>
<path d="M11.1368 7.12319V12.5619C11.1368 12.5619 13.0617 12.5619 14.0919 12.484C14.9021 12.3428 15.0512 12.2649 15.2004 11.4584L15.4986 10.277H16.3797L16.2306 12.8588L16.3088 15.5039H15.4204L15.2004 14.471C14.9803 13.736 14.6821 13.5866 14.0919 13.516C13.3536 13.4381 11.1368 13.4381 11.1368 13.4381V17.9996C11.1368 18.8768 11.5841 19.2516 12.6144 19.2516H15.7186C16.6779 19.2516 17.6363 19.1737 18.2337 17.7806L19.0366 16.0126H19.7822C19.704 16.3802 19.3349 19.6191 19.2639 20.3478C19.2639 20.3478 16.4579 20.2772 15.2786 20.2772H9.95744L6.78223 20.3478V19.5485L7.81244 19.3222C8.55805 19.1737 8.7781 18.9547 8.7781 18.3672C8.7781 18.3672 8.8563 16.3802 8.8563 13.0697C8.8563 9.76739 8.7781 7.77949 8.7781 7.77949C8.7781 7.12138 8.55805 6.97292 7.81244 6.82446L6.78223 6.6072V5.80064L9.88651 5.864H15.7968C16.9762 5.864 18.9648 5.65218 18.9648 5.65218C18.9648 5.65218 18.8939 6.89688 18.8157 9.83891H18.0055L17.7072 8.80603C17.4163 7.48347 16.9753 6.82537 16.1587 6.82537H11.5132C11.1368 6.82627 11.1368 6.89688 11.1368 7.12319Z" fill="white"/>
</svg>
