<svg width="26" height="26" viewBox="0 0 26 26" fill="none" xmlns="http://www.w3.org/2000/svg">
<path fill-rule="evenodd" clip-rule="evenodd" d="M26 12.9998C26 20.1798 20.1815 26 12.9998 26C5.82124 26 0 20.1798 0 12.9998C0 5.81989 5.82124 0 12.9998 0C20.1815 0 26 5.81989 26 12.9998ZM22.204 9.73972H20.7518L16.5754 18.4069L16.3588 18.8548C16.0459 19.4484 15.7496 19.5092 15.375 19.5179H10.4876C10.4803 19.5179 10.4738 19.5146 10.4675 19.5113C10.4615 19.5082 10.4557 19.5051 10.4494 19.5051H8.69858C8.62197 19.6701 8.59261 19.8277 8.59261 19.9553C8.59261 20.1754 8.67428 20.3471 8.83492 20.4703C8.99084 20.6073 9.25104 20.6968 9.60337 20.6968H15.3429C16.379 20.6968 17.0999 20.2698 17.4738 19.5092L17.5082 19.4383C17.5247 19.4131 17.5388 19.387 17.5528 19.3612C17.566 19.3368 17.579 19.3126 17.5939 19.2895V19.2881L22.204 9.73972ZM18.2637 6.04411C18.2637 6.17235 18.2357 6.3222 18.1604 6.48385H16.3688H15.7231H11.5566C11.1462 6.48385 10.8259 6.51355 10.4939 7.14734L10.2809 7.59282L6.12244 16.227H4.68072L8.8493 7.59282L9.37847 6.49263C9.75645 5.73127 10.4736 5.303 11.5137 5.303H17.2543C17.6039 5.303 17.8604 5.39682 18.0201 5.52439C18.1797 5.65567 18.2637 5.82306 18.2637 6.04411ZM22.4884 8.53247C22.5545 8.37014 22.5879 8.21558 22.5879 8.09037C22.5879 7.87607 22.508 7.71003 22.3456 7.572C22.1809 7.44342 21.9258 7.35196 21.5762 7.35196H13.2427C12.205 7.35196 11.4854 7.78259 11.1115 8.53956L7.38571 16.2666H8.8109L9.64785 14.5579L12.2677 9.14197C12.561 8.64283 12.8661 8.53247 13.3433 8.53247H20.3116H20.6947H22.4884ZM17.4789 11.174L18.1961 9.68336H19.6428L16.0473 17.1333C16.0254 17.1805 16.0001 17.2332 15.9693 17.2784L15.9336 17.354C15.5573 18.1049 14.8388 18.5413 13.7949 18.5413H5.37475C5.02343 18.5413 4.76728 18.4451 4.60293 18.3138C4.4433 18.1832 4.35893 18.0165 4.35893 17.8001C4.35893 17.6685 4.39099 17.5157 4.47131 17.3429H6.21441C6.22824 17.3516 6.24478 17.3614 6.2603 17.3614H13.7568C14.1689 17.3614 14.4895 17.3243 14.8135 16.6932L15.0355 16.2491L17.2224 11.7143L17.2403 11.6752L17.4789 11.174Z" fill="#00A8FF"/>
</svg>
